<?xml version="1.0" standalone="no"?>
<!DOCTYPE svg PUBLIC "-//W3C//DTD SVG 20010904//EN"
 "http://www.w3.org/TR/2001/REC-SVG-20010904/DTD/svg10.dtd">
<svg version="1.0" xmlns="http://www.w3.org/2000/svg"
 width="488.000000pt" height="466.000000pt" viewBox="0 0 488.000000 466.000000"
 preserveAspectRatio="xMidYMid meet">
<metadata>
Created by potrace 1.15, written by Peter Selinger 2001-2017
</metadata>
<g transform="translate(0.000000,466.000000) scale(0.100000,-0.100000)"
fill="#000000" stroke="none">
<path d="M2300 4645 c-14 -8 -32 -14 -41 -15 -9 0 -50 -11 -90 -24 -41 -13
-94 -29 -119 -36 -72 -21 -203 -60 -235 -71 -27 -9 -71 -23 -160 -49 -16 -4
-52 -15 -80 -23 -27 -8 -84 -25 -125 -37 -41 -12 -97 -28 -125 -37 -27 -8 -63
-19 -80 -23 -16 -5 -75 -23 -130 -40 -94 -29 -157 -48 -232 -70 -18 -6 -48
-14 -65 -20 -18 -5 -55 -16 -83 -24 -51 -15 -194 -57 -345 -102 -47 -14 -103
-31 -125 -38 -22 -7 -67 -21 -100 -31 -33 -9 -71 -21 -85 -25 -14 -5 -38 -11
-54 -15 -26 -5 -28 -9 -23 -43 2 -20 19 -91 37 -157 17 -66 35 -136 40 -155 5
-19 23 -89 40 -155 17 -66 35 -136 40 -155 5 -19 27 -107 50 -195 23 -88 45
-176 50 -195 5 -19 22 -87 38 -150 17 -63 51 -194 76 -290 97 -380 175 -679
237 -910 17 -63 35 -131 39 -150 5 -19 22 -87 39 -150 16 -63 44 -169 61 -235
17 -66 45 -172 61 -235 17 -63 34 -131 39 -150 4 -19 15 -61 24 -93 9 -32 16
-59 16 -61 0 -2 21 -13 47 -26 27 -13 55 -29 63 -36 8 -6 42 -26 75 -44 33
-17 83 -45 110 -61 28 -16 68 -38 90 -49 22 -12 55 -30 74 -41 36 -22 70 -22
141 -1 19 6 69 21 110 32 41 12 91 28 110 35 35 13 155 49 218 65 36 9 52 -7
52 -52 0 -24 32 -48 140 -104 30 -15 62 -33 70 -40 8 -6 49 -29 90 -50 41 -22
77 -42 80 -45 13 -15 126 -69 145 -69 11 0 56 11 100 25 44 14 103 31 130 39
28 8 88 26 135 41 47 14 99 29 115 34 17 5 75 22 130 39 99 31 287 87 445 133
19 6 49 14 65 19 17 5 53 16 80 24 28 8 95 29 150 46 55 17 114 35 130 40 30
8 113 33 170 50 17 5 46 13 65 19 19 6 60 18 90 26 30 9 69 21 85 25 17 5 98
29 180 55 175 54 205 63 263 77 54 12 56 -7 -21 288 -20 74 -54 207 -77 295
-83 319 -159 613 -215 830 -44 169 -94 363 -144 555 -40 155 -95 364 -113 430
-5 19 -13 51 -18 70 -5 19 -23 89 -40 155 -17 66 -35 136 -40 155 -5 19 -27
106 -49 193 -23 86 -59 226 -80 310 -22 83 -43 162 -47 175 -7 24 -28 28 -69
12 -22 -8 -42 -1 -148 54 -287 151 -265 136 -279 189 -8 34 -17 47 -29 47 -19
0 -103 -21 -154 -39 -27 -9 -156 -48 -240 -72 -16 -4 -46 -13 -65 -20 -90 -29
-100 -29 -106 0 -12 54 -16 61 -34 61 -10 0 -31 -5 -45 -10 -26 -10 -38 -6
-125 41 -8 4 -51 27 -95 50 -134 70 -190 102 -196 112 -4 5 -10 27 -13 48 -6
36 -9 39 -39 39 -17 -1 -43 -7 -57 -15z m243 -254 c51 -27 124 -65 163 -85
l71 -37 16 -62 c52 -206 201 -774 258 -987 17 -63 35 -131 39 -150 5 -19 26
-105 49 -190 99 -384 123 -477 131 -510 5 -19 23 -89 40 -155 17 -66 35 -136
40 -155 5 -19 26 -105 49 -190 22 -85 58 -227 81 -315 23 -88 59 -230 81 -315
22 -85 44 -170 49 -187 6 -25 5 -33 -5 -33 -7 0 -46 -11 -86 -24 -41 -13 -94
-29 -119 -36 -25 -7 -63 -18 -85 -26 -22 -7 -80 -25 -130 -39 -49 -15 -108
-32 -130 -40 -22 -7 -60 -18 -85 -25 -25 -7 -63 -18 -85 -25 -22 -7 -60 -18
-85 -25 -25 -7 -63 -18 -85 -25 -22 -7 -78 -24 -125 -38 -167 -49 -266 -79
-305 -92 -22 -7 -60 -18 -85 -25 -25 -7 -63 -18 -85 -25 -22 -7 -78 -24 -125
-38 -89 -26 -207 -62 -325 -97 -244 -74 -232 -73 -284 -43 -25 14 -62 36 -81
48 -19 12 -65 40 -102 61 -37 21 -68 41 -68 44 0 5 45 19 205 66 28 8 70 21
95 29 25 7 77 22 115 34 39 11 84 24 100 30 32 10 188 57 245 74 19 5 53 15
75 22 22 7 67 20 100 30 33 10 71 21 85 25 14 5 66 20 115 34 50 15 104 31
120 37 17 6 55 17 85 25 30 8 73 20 95 28 22 7 60 19 85 26 25 7 63 18 85 25
22 7 81 25 130 39 50 15 104 31 120 37 17 6 63 19 104 30 41 11 82 24 90 28 9
5 33 11 53 15 21 4 40 11 43 16 6 9 -62 280 -186 745 -53 196 -101 379 -109
415 -5 19 -26 105 -49 190 -99 384 -123 477 -131 510 -5 19 -23 89 -40 155
-17 66 -35 136 -40 155 -5 19 -27 107 -50 195 -23 88 -59 230 -81 315 -22 85
-53 205 -69 265 -16 61 -39 152 -53 203 -13 50 -22 92 -20 92 2 0 45 -22 96
-49z m1109 -214 c56 -30 131 -68 164 -86 l62 -32 20 -82 c11 -45 39 -152 61
-237 22 -85 58 -225 80 -310 61 -240 149 -573 207 -790 14 -52 30 -111 34
-130 5 -19 22 -87 39 -150 16 -63 48 -187 71 -275 23 -88 59 -230 81 -315 23
-85 44 -171 49 -190 5 -19 23 -89 40 -155 17 -66 35 -136 40 -155 5 -19 27
-107 50 -195 23 -88 45 -176 50 -195 4 -19 9 -41 11 -49 5 -15 -30 -28 -276
-100 -56 -16 -210 -63 -305 -92 -52 -16 -113 -34 -135 -40 -22 -6 -58 -17 -80
-24 -22 -7 -60 -18 -85 -25 -25 -7 -63 -18 -85 -25 -22 -7 -60 -18 -85 -25
-25 -7 -63 -18 -85 -26 -22 -7 -80 -25 -130 -39 -49 -15 -108 -32 -130 -40
-22 -7 -60 -18 -85 -25 -25 -7 -63 -18 -85 -25 -22 -7 -56 -17 -75 -23 -33 -9
-92 -27 -315 -94 -55 -16 -113 -35 -129 -41 -17 -6 -53 -11 -80 -11 -45 0 -63
7 -156 64 -58 36 -117 72 -132 79 -16 8 -28 17 -28 21 0 3 42 19 93 33 50 15
112 34 137 41 25 8 77 23 115 35 39 11 84 24 100 30 17 5 64 20 105 32 41 12
95 28 120 35 25 8 68 21 95 29 28 8 86 26 130 39 44 13 121 36 170 50 50 15
104 31 120 37 17 6 55 17 85 25 30 8 73 20 95 28 22 7 60 19 85 26 25 7 63 18
85 25 22 7 81 25 130 39 50 15 104 31 120 37 17 6 55 17 85 25 30 8 73 20 95
28 67 22 108 34 142 41 18 4 35 10 38 15 5 8 -11 76 -80 330 -20 74 -40 151
-45 170 -4 19 -23 89 -40 155 -17 66 -35 136 -40 155 -8 33 -32 126 -131 510
-23 85 -44 171 -49 190 -5 19 -23 89 -40 155 -17 66 -35 136 -40 155 -4 19
-25 98 -45 175 -20 77 -52 201 -71 275 -20 74 -48 185 -64 245 -16 61 -47 182
-70 270 -23 88 -55 212 -71 275 -44 167 -47 180 -44 180 2 0 50 -24 107 -53z
m-1820 -207 c14 -30 29 -74 33 -97 8 -52 18 -60 38 -29 19 29 69 50 101 42 36
-9 63 -61 91 -180 29 -118 30 -183 3 -200 -28 -17 -57 21 -78 103 -25 94 -41
125 -66 129 -11 2 -28 -6 -39 -18 -17 -19 -17 -25 -4 -93 24 -126 14 -177 -33
-177 -36 0 -82 141 -113 342 -18 114 -19 176 -5 213 15 40 41 27 72 -35z
m-171 -151 c37 -26 59 -68 59 -112 0 -38 -15 -57 -46 -57 -17 0 -25 9 -34 35
-25 77 -64 21 -58 -82 4 -61 27 -111 56 -121 11 -3 17 2 61 58 16 20 23 23 38
14 30 -18 29 -79 -3 -121 -68 -90 -162 -73 -222 40 -24 47 -27 62 -27 157 0
93 3 109 24 144 23 37 67 65 104 66 11 0 32 -9 48 -21z m-308 -115 c53 -39
126 -220 130 -321 2 -34 -3 -48 -17 -59 -26 -19 -32 -18 -57 7 l-21 21 -27
-26 c-56 -53 -123 -50 -169 9 -25 32 -28 74 -8 114 16 29 81 92 115 111 38 20
20 70 -24 70 -12 0 -36 -16 -55 -35 -41 -42 -77 -46 -86 -10 -18 71 68 150
152 142 23 -2 53 -13 67 -23z m-562 6 c34 -19 24 -59 -29 -109 l-48 -46 9 -50
c5 -27 24 -114 43 -192 35 -147 35 -183 0 -196 -45 -17 -63 20 -118 235 -22
90 -42 164 -42 165 -1 1 -18 -3 -38 -9 -50 -15 -88 -4 -88 26 0 51 92 123 212
166 63 22 73 23 99 10z m232 -62 c79 -42 82 -163 5 -240 -21 -21 -45 -38 -53
-38 -13 0 -14 -4 -5 -20 17 -33 55 -25 97 20 24 27 44 40 58 38 33 -5 27 -85
-9 -133 -75 -98 -191 -74 -252 51 -36 73 -38 188 -5 252 35 69 108 100 164 70z
m1392 -565 c26 -109 50 -203 52 -208 4 -12 -119 -48 -128 -37 -3 4 -18 59 -33
123 -16 64 -32 122 -36 129 -5 9 -38 3 -130 -25 -67 -20 -123 -35 -125 -33 -6
8 -33 133 -30 136 4 4 361 110 376 111 3 1 27 -88 54 -196z m-930 -193 c18
-74 25 -123 19 -128 -13 -12 -93 -34 -103 -28 -4 3 -13 30 -20 61 -7 30 -18
55 -24 55 -7 0 -33 -7 -59 -15 -26 -7 -49 -11 -51 -7 -9 14 -29 113 -25 118 8
7 192 62 214 63 18 1 23 -13 49 -119z m725 53 c5 -21 13 -54 16 -74 l6 -35
-62 -19 c-33 -10 -63 -22 -66 -27 -3 -4 2 -37 11 -74 10 -36 15 -68 12 -70 -3
-3 -33 -14 -66 -24 l-62 -19 -9 22 c-20 47 -71 270 -63 278 10 9 231 77 255
78 11 1 21 -11 28 -36z m-1042 -76 c7 -32 12 -63 9 -70 -2 -7 -59 -27 -126
-46 -96 -28 -120 -38 -117 -50 3 -9 17 -63 31 -121 14 -58 28 -112 31 -121 3
-13 -9 -20 -57 -33 -34 -10 -65 -14 -69 -9 -12 13 -103 393 -96 400 9 9 358
111 370 109 5 -1 16 -28 24 -59z m181 -89 c4 -13 11 -39 15 -60 l7 -36 -52
-17 c-31 -11 -54 -14 -60 -8 -5 5 -15 33 -23 62 -13 51 -13 53 8 60 11 5 28
11 36 14 34 13 61 7 69 -15z m952 -20 c6 -24 12 -58 13 -77 1 -34 0 -35 -59
-52 -33 -10 -63 -15 -66 -11 -9 10 -40 134 -35 139 4 4 114 40 128 42 4 1 13
-18 19 -41z m216 -93 c18 -71 33 -137 33 -145 0 -11 -38 -26 -135 -54 -74 -22
-137 -37 -139 -35 -4 4 -36 131 -36 141 0 3 29 14 65 23 74 20 75 23 50 115
-8 30 -13 56 -11 57 9 9 94 31 115 30 23 -2 27 -11 58 -132z m-1309 16 c7 -21
12 -45 12 -54 0 -26 18 -29 71 -12 28 10 53 15 55 12 3 -3 11 -31 19 -62 12
-54 12 -57 -9 -65 -39 -17 -207 -62 -212 -57 -10 9 -64 240 -58 246 7 8 74 29
95 30 10 1 20 -13 27 -38z m791 -148 c28 -105 140 -567 138 -568 -1 -1 -101
-30 -222 -65 -121 -34 -248 -71 -282 -80 l-61 -18 -72 288 c-39 158 -73 296
-73 305 -1 12 8 21 28 27 17 4 136 39 265 77 129 38 243 70 252 70 12 1 20
-11 27 -36z m638 -348 c18 -71 33 -137 33 -146 0 -11 -19 -21 -65 -34 -36 -9
-67 -16 -69 -14 -2 2 -11 33 -19 68 -9 35 -19 66 -22 69 -2 3 -34 -3 -70 -13
-36 -9 -67 -16 -69 -14 -2 2 -10 34 -19 72 -11 50 -12 69 -4 75 23 14 222 70
246 69 23 -2 27 -11 58 -132z m-1492 34 c73 -81 254 -396 240 -419 -16 -25
-55 -9 -96 40 -36 43 -47 50 -78 49 -20 0 -56 -8 -81 -18 -48 -20 -68 -53 -69
-118 -1 -47 -50 -86 -64 -50 -7 20 12 427 23 481 13 61 25 76 60 76 20 0 38
-12 65 -41z m1333 -176 c6 -21 14 -55 17 -75 l7 -37 -53 -15 c-83 -25 -84 -24
-103 50 -9 37 -14 69 -11 73 7 6 102 38 121 40 6 1 16 -16 22 -36z m-163 -133
c9 -38 22 -70 29 -70 6 0 36 7 66 15 30 8 58 15 61 15 8 0 42 -140 36 -146 -6
-7 -244 -74 -261 -74 -16 0 -19 9 -62 181 -14 57 -21 106 -16 111 9 9 89 36
113 37 13 1 21 -17 34 -69z m428 -144 c27 -109 45 -202 40 -206 -12 -10 -365
-112 -370 -106 -3 3 -13 34 -22 69 l-18 64 125 36 c69 20 126 38 128 40 2 1
-12 63 -31 137 -19 74 -33 135 -32 136 7 7 105 32 117 31 10 -2 29 -61 63
-201z m-1146 -131 c7 -27 11 -55 9 -61 -3 -7 -28 -17 -56 -24 -58 -14 -54 -1
-34 -113 6 -33 6 -33 -50 -49 -31 -8 -58 -13 -60 -9 -10 19 -59 241 -54 247
11 10 192 63 212 61 15 -2 23 -15 33 -52z m-369 -117 c6 -18 21 -76 33 -128
13 -52 26 -99 30 -104 4 -4 54 5 111 22 153 45 139 47 160 -28 10 -35 14 -67
10 -70 -9 -8 -373 -112 -377 -108 -3 4 -93 364 -97 392 -2 14 9 22 52 36 30
10 58 18 62 19 3 1 11 -14 16 -31z m440 -29 c7 -28 12 -57 12 -64 0 -15 -101
-49 -111 -37 -7 7 -29 93 -29 111 0 9 75 37 106 40 6 1 16 -22 22 -50z m178
-44 c12 -49 25 -104 28 -121 l7 -31 -108 -32 c-59 -17 -113 -31 -119 -31 -13
0 -39 103 -30 118 3 5 26 15 50 21 25 6 47 15 50 20 3 4 -1 34 -9 66 -9 32
-14 59 -13 60 13 8 78 23 97 22 23 -2 27 -10 47 -92z"/>
<path d="M1667 2434 c-59 -19 -80 -31 -86 -48 -7 -16 8 -89 52 -259 51 -199
63 -237 78 -237 31 0 37 30 24 115 -15 91 -9 106 44 107 26 1 44 -11 105 -70
70 -68 108 -87 129 -65 4 3 -21 38 -56 77 -98 112 -92 99 -68 155 39 92 21
193 -41 231 -43 26 -86 25 -181 -6z m136 -54 c66 -52 51 -152 -28 -190 -70
-34 -80 -29 -99 45 -22 90 -21 122 7 136 18 10 59 23 88 28 4 1 18 -8 32 -19z"/>
<path d="M1087 2143 c-3 -17 -9 -72 -13 -122 -7 -86 -6 -91 13 -91 36 0 113
32 113 46 0 19 -62 142 -87 173 l-20 24 -6 -30z"/>
</g>
</svg>
