{
	"accessors" : 
	[
		{
			"bufferView" : 2,
			"byteOffset" : 0,
			"componentType" : 5126,
			"count" : 48,
			"max" : 
			[
				0.6800203323364258,
				0.6800203323364258,
				0.6800203323364258,
				0.2509804
			],
			"min" : 
			[
				0.6800203323364258,
				0.6800203323364258,
				0.6800203323364258,
				0.2509804
			],
			"name" : "accessor_color_m0-PolyGlass24_-252982",
			"type" : "VEC4"
		},
		{
			"bufferView" : 2,
			"byteOffset" : 768,
			"componentType" : 5126,
			"count" : 5424,
			"max" : 
			[
				1,
				1,
				1,
				1
			],
			"min" : 
			[
				0.006584956776350737,
				0.006584956776350737,
				0.006584956776350737,
				1
			],
			"name" : "accessor_color_m1-PolyPaper20_-254168",
			"type" : "VEC4"
		},
		{
			"bufferView" : 2,
			"byteOffset" : 87552,
			"componentType" : 5126,
			"count" : 9976,
			"max" : 
			[
				1,
				1,
				1,
				1
			],
			"min" : 
			[
				5.692175545846112e-05,
				0.006584956776350737,
				0.006584956776350737,
				1
			],
			"name" : "accessor_color_m2-PolyPaper20_-252980",
			"type" : "VEC4"
		},
		{
			"bufferView" : 0,
			"byteOffset" : 0,
			"componentType" : 5123,
			"count" : 120,
			"max" : 
			[
				47
			],
			"min" : 
			[
				0
			],
			"name" : "accessor_indices_0_m0-PolyGlass24_-252982",
			"type" : "SCALAR"
		},
		{
			"bufferView" : 0,
			"byteOffset" : 240,
			"componentType" : 5123,
			"count" : 6954,
			"max" : 
			[
				5423
			],
			"min" : 
			[
				0
			],
			"name" : "accessor_indices_0_m1-PolyPaper20_-254168",
			"type" : "SCALAR"
		},
		{
			"bufferView" : 0,
			"byteOffset" : 14148,
			"componentType" : 5123,
			"count" : 13932,
			"max" : 
			[
				9975
			],
			"min" : 
			[
				0
			],
			"name" : "accessor_indices_0_m2-PolyPaper20_-252980",
			"type" : "SCALAR"
		},
		{
			"bufferView" : 1,
			"byteOffset" : 576,
			"componentType" : 5126,
			"count" : 48,
			"max" : 
			[
				0.1079282,
				0.1086793,
				0.9882016
			],
			"min" : 
			[
				-0.1079297,
				-0.1086765,
				-0.9882016
			],
			"name" : "accessor_normal_m0-PolyGlass24_-252982",
			"type" : "VEC3"
		},
		{
			"bufferView" : 1,
			"byteOffset" : 66240,
			"componentType" : 5126,
			"count" : 5424,
			"max" : 
			[
				0.9998053,
				1,
				0.9989732
			],
			"min" : 
			[
				-0.9997364,
				-1,
				-0.9989400000000001
			],
			"name" : "accessor_normal_m1-PolyPaper20_-254168",
			"type" : "VEC3"
		},
		{
			"bufferView" : 1,
			"byteOffset" : 251040,
			"componentType" : 5126,
			"count" : 9976,
			"max" : 
			[
				0.9997014,
				0.9994845,
				0.9999324000000001
			],
			"min" : 
			[
				-0.9996093,
				-0.999485,
				-0.9993119
			],
			"name" : "accessor_normal_m2-PolyPaper20_-252980",
			"type" : "VEC3"
		},
		{
			"bufferView" : 1,
			"byteOffset" : 0,
			"componentType" : 5126,
			"count" : 48,
			"max" : 
			[
				0.1598534,
				-1.78926,
				-1.53721
			],
			"min" : 
			[
				-0.112834,
				-1.8939,
				-1.584881
			],
			"name" : "accessor_position_m0-PolyGlass24_-252982",
			"type" : "VEC3"
		},
		{
			"bufferView" : 1,
			"byteOffset" : 1152,
			"componentType" : 5126,
			"count" : 5424,
			"max" : 
			[
				0.3241202,
				-1.616392,
				-1.239749
			],
			"min" : 
			[
				-0.2852608,
				-2.716456,
				-1.956999
			],
			"name" : "accessor_position_m1-PolyPaper20_-254168",
			"type" : "VEC3"
		},
		{
			"bufferView" : 1,
			"byteOffset" : 131328,
			"componentType" : 5126,
			"count" : 9976,
			"max" : 
			[
				0.2853521,
				-1.599058,
				-1.264017
			],
			"min" : 
			[
				-0.2767608,
				-2.601921,
				-1.98033
			],
			"name" : "accessor_position_m2-PolyPaper20_-252980",
			"type" : "VEC3"
		}
	],
	"asset" : 
	{
		"copyright" : "Unknown",
		"generator" : "glTF 1-to-2 Upgrader for Google Blocks",
		"version" : "2.0"
	},
	"bufferViews" : 
	[
		{
			"buffer" : 0,
			"byteLength" : 42012,
			"byteOffset" : 0,
			"name" : "ushortBufferView",
			"target" : 34963
		},
		{
			"buffer" : 0,
			"byteLength" : 370752,
			"byteOffset" : 42012,
			"byteStride" : 12,
			"name" : "vec3BufferView",
			"target" : 34962
		},
		{
			"buffer" : 0,
			"byteLength" : 247168,
			"byteOffset" : 412764,
			"byteStride" : 16,
			"name" : "vec4BufferView",
			"target" : 34962
		}
	],
	"buffers" : 
	[
		{
			"byteLength" : 659932,
			"name" : "model",
			"uri" : "model.bin"
		}
	],
	"materials" : 
	[
		{
			"alphaMode" : "OPAQUE",
			"doubleSided" : false,
			"name" : "BlocksPaper",
			"pbrMetallicRoughness" : 
			{
				"baseColorFactor" : 
				[
					1,
					1,
					1,
					1
				],
				"metallicFactor" : 0,
				"roughnessFactor" : 0.6
			}
		},
		{
			"alphaMode" : "BLEND",
			"doubleSided" : false,
			"name" : "BlocksGlass",
			"pbrMetallicRoughness" : 
			{
				"baseColorFactor" : 
				[
					0.2,
					0.2,
					1,
					0.3
				],
				"metallicFactor" : 1,
				"roughnessFactor" : 0.4
			}
		},
		{
			"alphaMode" : "OPAQUE",
			"doubleSided" : true,
			"name" : "BlocksGem",
			"pbrMetallicRoughness" : 
			{
				"baseColorFactor" : 
				[
					1,
					0.4,
					1,
					1
				],
				"metallicFactor" : 0,
				"roughnessFactor" : 0.1
			}
		}
	],
	"meshes" : 
	[
		{
			"name" : "mesh_m0-PolyGlass24_-252982",
			"primitives" : 
			[
				{
					"attributes" : 
					{
						"COLOR_0" : 0,
						"NORMAL" : 6,
						"POSITION" : 9
					},
					"indices" : 3,
					"material" : 1,
					"mode" : 4
				}
			]
		},
		{
			"name" : "mesh_m1-PolyPaper20_-254168",
			"primitives" : 
			[
				{
					"attributes" : 
					{
						"COLOR_0" : 1,
						"NORMAL" : 7,
						"POSITION" : 10
					},
					"indices" : 4,
					"material" : 0,
					"mode" : 4
				}
			]
		},
		{
			"name" : "mesh_m2-PolyPaper20_-252980",
			"primitives" : 
			[
				{
					"attributes" : 
					{
						"COLOR_0" : 2,
						"NORMAL" : 8,
						"POSITION" : 11
					},
					"indices" : 5,
					"material" : 0,
					"mode" : 4
				}
			]
		}
	],
	"nodes" : 
	[
		{
			"matrix" : 
			[
				1,
				0,
				0,
				0,
				0,
				1,
				0,
				0,
				0,
				0,
				1,
				0,
				0,
				0,
				0,
				1
			],
			"mesh" : 1,
			"name" : "node_MeshObject1513342720-PolyPaper20"
		},
		{
			"matrix" : 
			[
				1,
				0,
				0,
				0,
				0,
				1,
				0,
				0,
				0,
				0,
				1,
				0,
				0,
				0,
				0,
				1
			],
			"mesh" : 2,
			"name" : "node_MeshObject475902592-PolyPaper20"
		},
		{
			"matrix" : 
			[
				1,
				0,
				0,
				0,
				0,
				1,
				0,
				0,
				0,
				0,
				1,
				0,
				0,
				0,
				0,
				1
			],
			"mesh" : 0,
			"name" : "node_MeshObject994622656-PolyGlass24"
		}
	],
	"scene" : 0,
	"scenes" : 
	[
		{
			"extras" : {},
			"name" : "defaultScene",
			"nodes" : 
			[
				2,
				0,
				1
			]
		}
	]
}